<?xml version="1.0" standalone="no"?>
<!DOCTYPE svg PUBLIC "-//W3C//DTD SVG 20010904//EN"
 "http://www.w3.org/TR/2001/REC-SVG-20010904/DTD/svg10.dtd">
<svg version="1.0" xmlns="http://www.w3.org/2000/svg"
 width="1280.000000pt" height="1280.000000pt" viewBox="0 0 1280.000000 1280.000000"
 preserveAspectRatio="xMidYMid meet">
<g transform="translate(0.000000,1280.000000) scale(0.100000,-0.100000)"
fill="#000000" stroke="none">
<path d="M6145 12790 c-38 -5 -144 -13 -235 -20 -1284 -91 -2537 -591 -3550
-1419 -318 -260 -646 -588 -911 -911 -823 -1005 -1328 -2267 -1419 -3545 -6
-88 -15 -201 -21 -252 -12 -117 -12 -369 0 -486 6 -51 15 -164 21 -252 91
-1278 596 -2540 1419 -3545 773 -944 1786 -1642 2936 -2025 496 -165 1013
-269 1520 -305 88 -6 201 -15 252 -21 117 -12 369 -12 486 0 51 6 164 15 252
21 1279 91 2534 593 3545 1419 318 260 646 588 911 911 823 1005 1328 2267
1419 3545 6 88 15 201 21 252 12 117 12 369 0 486 -6 51 -15 164 -21 252 -91
1278 -596 2540 -1419 3545 -773 944 -1786 1642 -2936 2025 -496 165 -1013 269
-1520 305 -88 6 -201 15 -252 21 -106 10 -396 10 -498 -1z m565 -1863 c171
-52 312 -133 437 -251 186 -175 273 -387 273 -665 0 -176 -26 -293 -98 -436
-124 -249 -314 -413 -569 -492 -86 -26 -95 -27 -338 -27 -245 -1 -252 0 -338
27 -274 85 -515 284 -618 512 -54 119 -70 198 -76 361 -6 174 8 270 60 394
111 269 322 477 567 559 124 42 202 51 415 47 181 -3 208 -6 285 -29z m658
-5549 l2 -2838 363 0 c275 0 367 -3 380 -12 16 -12 17 -42 15 -348 l-3 -335
-1725 0 -1725 0 -3 335 c-2 306 -1 336 15 348 13 9 105 12 380 12 l363 0 0
2495 0 2495 -377 2 -378 3 -3 330 c-1 181 0 336 3 342 3 11 274 13 1347 11
l1343 -3 3 -2837z"/>
</g>
</svg>
